<svg width="312" height="51" viewBox="0 0 312 51" fill="none" xmlns="http://www.w3.org/2000/svg">
    <path d="M68.7398 43.4326L68.7626 43.4211C71.2221 42.403 71.5767 41.7624 71.4509 40.1266V33.5146C73.327 38.2619 75.0887 41.6023 78.7264 41.6023C79.2183 41.6023 79.7445 41.5451 80.3165 41.4078L81.735 41.0875L80.7626 40.0122C80.1449 39.3258 79.836 38.7996 79.4929 38.1819C79.3441 37.9302 79.1954 37.6671 79.0238 37.3811C78.1773 35.9969 76.1525 35.5393 74.5167 36.2715C73.7731 34.7958 73.0296 32.874 72.1258 30.506L71.9314 30.0598C71.7826 29.7052 71.6225 29.3506 71.4623 28.996V28.9388H71.4395C70.8789 27.6919 70.2841 26.4335 69.5748 25.2553C68.9342 24.1914 68.2707 23.2648 67.5729 22.4412C65.6854 20.2219 63.1802 18.8377 60.1258 18.3344C58.021 17.9912 56.5224 17.9111 54.6349 17.8196C54.246 17.7967 53.8341 17.7853 53.3994 17.7624C52.5415 17.7167 50.7798 17.5679 49.0639 17.4307C47.9085 17.3392 46.7302 17.2362 45.8036 17.1676C45.8723 16.9045 45.9066 16.6414 45.9066 16.3554C45.9066 15.9779 45.8723 15.6461 45.8036 15.3373H57.9295C61.0524 15.3373 63.3174 13.9531 64.6673 11.2419C67.7788 11.2076 70.021 9.80055 71.348 7.05508H71.7827C75.02 7.05508 77.3308 5.57939 78.6578 2.67377L79.2069 1.47262H38.1049C35.4052 1.47262 33.1058 3.2343 32.2479 5.95689L32.225 6.04841C31.5272 4.1037 30.246 2.44498 28.6101 1.47262C26.3337 0.122767 23.7369 -0.334813 21.6778 0.2486C20.9914 0.443071 20.3165 0.751937 19.7674 1.118C19.2869 1.4383 18.6235 1.9302 18.143 2.54793C17.6168 3.22286 17.1134 4.03506 16.7359 4.80151C16.5072 4.99598 16.3127 5.20189 16.1868 5.38492L15.6949 6.31152L15.6721 6.35728C15.0887 7.68425 14.368 8.61085 13.8074 9.2629C13.2583 9.90351 13.224 10.5212 13.3041 10.9216C13.3842 11.3563 13.6244 11.7224 13.8761 11.9855L13.8646 12.0084C13.7045 12.2944 13.613 12.6147 13.613 12.9464C13.613 14.0332 14.551 14.8454 15.7178 14.8454C16.5643 14.8454 17.2507 14.445 17.9828 13.9645C18.2803 13.77 19.0696 13.2438 19.3213 13.221C19.6416 13.221 19.939 13.5184 19.939 13.8387C19.939 14.731 18.795 15.2 17.9714 15.2686L16.3012 15.4402C15.1001 15.5546 14.5396 16.1952 14.5396 16.7557C14.5396 17.3277 14.8141 17.648 14.9971 17.8425L15.123 17.9683L15.5462 18.3458L13.7731 21.1943C12.5148 20.0274 11.0391 19.3182 9.72355 19.2839C8.87702 19.261 8.1449 19.5127 7.60725 20.016C7.44709 20.1647 7.30982 20.3363 7.19542 20.5193H7.16111C5.76549 20.5193 4.63298 21.2629 4.08389 22.1094C3.48904 23.0246 3.70639 24.6147 4.46139 25.8272L0 26.9826V48.3401H81.918V44.0846H67.001L68.7398 43.4326ZM77.571 38.2848C77.7312 38.5479 77.8799 38.7996 78.0057 39.0284C78.1659 39.3258 78.3375 39.6004 78.5205 39.9092C77.2393 39.8292 76.2555 39.1199 75.3632 37.77C76.1983 37.4841 77.205 37.69 77.571 38.2848ZM59.8398 20.0046C62.4824 20.4393 64.6444 21.629 66.2688 23.5394C66.6235 23.9512 66.9552 24.3859 67.2869 24.8549C62.8484 24.2715 61.2927 23.6194 58.8103 19.8558C59.1306 19.9016 59.4738 19.9474 59.8398 20.0046ZM57.918 13.6442H49.5786C50.2993 13.015 50.8942 12.2143 51.3746 11.2419H62.7112C61.6358 12.8778 60.0915 13.6442 57.918 13.6442ZM64.5529 9.54889H56.2135C56.9457 8.90827 57.5634 8.07319 58.0553 7.05508H69.4032C68.3394 8.74812 66.7722 9.54889 64.5529 9.54889ZM65.1249 3.16566H76.4271C75.3632 4.65279 73.8646 5.36204 71.7712 5.36204H63.4318C64.0953 4.77863 64.6559 4.0465 65.1249 3.16566ZM19.47 3.60036C19.7331 3.25718 20.1678 2.87968 20.694 2.53649C21.0944 2.27339 21.632 2.03316 22.1468 1.88444C22.9704 1.64422 23.9085 1.63278 24.8808 1.81581L21.8837 3.65756C21.5062 3.62324 21.1401 3.60036 20.7855 3.60036C20.2822 3.60036 19.8132 3.64612 19.3785 3.71476C19.4013 3.68044 19.4357 3.63468 19.47 3.60036ZM16.1868 16.6185L17.6511 16.6642C19.4357 16.5956 21.2431 15.8635 21.449 14.0217C21.449 12.7634 20.5567 11.5508 19.2984 11.5508C18.6234 11.5508 17.8684 12.0198 17.0219 12.5803C16.4728 12.9464 16.0267 13.2324 15.7064 13.2324C15.4776 13.2324 15.2946 13.0837 15.2946 12.9578C15.2946 12.935 15.2946 12.9121 15.306 12.9006L16.244 11.6537L15.4318 11.1161C15.2602 11.0017 14.9971 10.7958 14.9628 10.6356C14.9514 10.5556 15.0543 10.4297 15.0887 10.384C15.4204 9.99502 15.8093 9.52601 16.1868 8.93116C16.4271 8.59941 16.5643 8.41638 16.9647 8.41638C17.3537 8.41638 17.674 8.72525 17.674 9.11419C17.674 9.36586 17.96 9.57176 18.3031 9.57176C18.6578 9.57176 18.8065 9.3201 19.0238 9.11419C19.0238 9.11419 19.8589 8.34774 19.4128 7.99312C18.9094 7.5813 16.8961 8.41638 17.4566 6.57462L17.5939 6.31152C17.8112 6.02553 18.7722 5.31628 20.7626 5.31628C21.1401 5.31628 21.5405 5.33916 21.9409 5.39636L22.2383 5.43068L26.4595 2.83392C26.4938 2.92544 26.5052 2.98263 26.5052 2.98263V3.00551C26.7226 4.28673 25.9218 5.80818 24.6292 6.54031L24.1487 6.82629L24.4805 8.72524C23.3937 9.05699 22.6387 9.92639 22.6387 10.9788C22.6387 11.3334 22.7188 11.7681 22.8332 12.3058C22.9476 12.9006 23.0848 13.587 23.1192 14.2734C23.1192 16.2524 20.3851 17.568 18.0629 17.4879H18.0057C17.9142 17.4879 16.4385 17.3735 16.0725 17.0875C16.0038 17.0303 15.9466 16.9159 15.9695 16.8358C15.9924 16.71 16.0839 16.607 16.1868 16.6185ZM5.50238 23.0475C5.83413 22.5441 6.60057 22.098 7.55005 22.2696L8.27073 22.3954L8.49952 21.6976C8.55672 21.5146 8.6368 21.3773 8.75119 21.2629C8.9571 21.0684 9.25453 20.9769 9.64347 20.9884C10.6616 21.0227 11.9428 21.7319 12.9838 22.8415C13.3613 23.2419 13.693 23.7224 14.0019 24.1914C14.0591 24.2944 14.1277 24.3973 14.1849 24.4888C14.265 24.6261 14.3451 24.7291 14.3565 24.7519C14.3908 24.8206 14.9056 25.587 14.8713 25.6328C15.2259 25.1409 15.5806 24.649 15.9237 24.1571C15.9352 24.1456 15.9237 24.0999 15.8894 24.0313C15.8093 23.8597 15.6263 23.5737 15.5119 23.3906C15.489 23.3449 15.4547 23.3106 15.4318 23.2648L15.4204 23.2534C15.409 23.2305 15.3632 23.1618 15.306 23.0589C15.1916 22.8759 15.02 22.6128 14.9514 22.464L17.1706 18.9292C17.7197 19.0436 18.1887 19.0665 18.4175 19.0665H18.4747C21.5977 19.0665 24.8236 17.2705 24.8236 14.2619V14.1819C24.7779 13.3697 24.6292 12.5803 24.5033 11.9512C24.4233 11.5394 24.3432 11.1504 24.3432 10.9559C24.3432 10.6242 24.8122 10.2581 25.4757 10.2581H26.4824L26.0248 7.64993C27.4433 6.60894 28.3127 4.90446 28.2784 3.28006C29.8113 4.45832 30.8866 6.48311 31.081 8.64517C31.1382 9.27434 31.0124 10.1552 30.8065 11.0818L30.6921 11.4707H30.715C30.3603 12.9807 29.8227 14.5251 29.5367 15.2686L29.2736 15.955L29.9028 16.3096C31.0467 16.9502 31.7445 17.4307 31.7445 18.9178C31.7445 20.6337 30.2002 21.9493 28.7016 22.2353L26.654 22.6242L28.3813 23.7796C28.9419 24.1456 29.2736 24.7519 29.2736 25.3925C29.2736 26.4679 28.3584 27.3487 27.2259 27.3487H26.5739L26.3908 27.9435C25.7502 30.0141 25.0639 31.0208 22.8561 31.2381C22.959 30.6089 23.0276 30.0026 23.0276 29.1447C23.0276 28.9502 23.0048 28.3782 23.0048 28.2067L22.9132 26.2848L21.552 27.6576C21.0944 28.1266 20.2822 28.4926 19.3785 28.6757V26.9941L9.68923 24.4774L6.23451 25.3697C5.45663 24.6147 5.30791 23.3449 5.50238 23.0475ZM2.71115 44.0846L9.67779 42.2658L16.6444 44.0846H2.71115ZM17.674 42.6089L9.67779 40.527L1.6816 42.6089V28.3096L9.67779 26.2391L17.674 28.3096V42.6089ZM21.3918 39.8292C20.6711 40.8701 20.5796 42.3001 21.1287 44.0961H19.3785V30.403C20.0076 30.3115 20.6826 30.1285 21.3117 29.8425C21.2774 30.4373 21.1973 30.9178 21.0829 31.547C21.0601 31.6957 21.0372 31.8444 21.0029 32.0046L20.8313 32.9883H21.8379C23.348 32.9883 24.4576 32.7596 25.3155 32.3134V38.0332C25.3155 38.1819 25.2011 38.2963 25.0639 38.2963H24.8122C23.3136 38.2848 22.0782 38.8454 21.3918 39.8292ZM38.9971 44.0846H28.6101C29.7312 43.9702 30.5319 43.7186 31.0925 43.1352C31.7674 42.4259 31.836 41.465 31.8132 40.7672C31.836 40.71 31.9504 40.4698 32.4538 40.241L33.346 39.8292L32.8084 39.0055C31.9161 37.6442 32.3051 34.6585 32.6482 33.0455H32.7283C36.2517 33.0455 38.5281 32.3134 40.9304 31.547C41.5596 31.3411 42.2116 31.1352 42.8866 30.9407L42.9094 30.9292C42.9209 30.9292 43.6301 30.7005 44.5796 30.4831L47.9657 36.0656L48 36.1113C48.3317 36.5918 48.3775 36.9121 47.7712 37.6213L46.0667 39.4516L43.2869 38.9369H43.2641C42.0057 38.7424 40.6559 39.2343 39.8208 40.1952C39.2031 40.893 38.6082 42.1285 38.9971 44.0846ZM40.7359 44.0846C40.4271 42.8835 40.5529 41.9226 41.102 41.3048C41.6282 40.71 42.429 40.527 43.001 40.607L46.2269 41.2133L46.307 41.2248H46.7531L49.0296 38.7653L49.0524 38.7424C49.4414 38.2848 50.6196 36.9121 49.4185 35.1618L46.3642 30.1514C46.8675 30.0827 47.3708 30.037 47.8398 30.037H47.8627C47.8742 30.037 49.4071 30.0141 51.0429 30.9636C51.2602 31.4326 51.5691 32.0618 51.9123 32.7596C52.5529 34.0522 53.3537 35.6652 53.571 36.3172C53.6397 36.5231 53.857 37.1409 53.0906 37.9302L47.2564 44.0846H40.7359ZM60.6292 44.0846H49.6015L54.326 39.097C55.2869 38.1132 55.5844 36.9235 55.184 35.7681C54.9552 35.0932 54.326 33.812 53.6854 32.4965C55.5615 33.3659 58.4099 34.1437 64.1983 34.6128C64.8961 34.67 65.0791 34.9102 65.2164 35.5394L65.4681 38.0332L62.4366 38.7081C61.4185 38.914 60.6292 39.5775 60.2517 40.5384C59.8398 41.6023 59.9771 42.8606 60.6292 44.0846ZM61.8303 41.1561C62.0019 40.7329 62.3222 40.4583 62.7684 40.3668L67.2984 39.3601L66.8866 35.322L66.8751 35.2305C66.7607 34.6928 66.429 33.0913 64.3241 32.9197C56.225 32.2677 54.3489 31.0665 52.3813 29.7967C52.3813 29.7853 52.3813 29.7853 52.3699 29.7853L52.3584 29.7967L52.2326 29.7167C50.1277 28.3554 48.0458 28.3439 47.8398 28.3554C45.5405 28.3554 42.6463 29.2705 42.4061 29.3392C41.7083 29.5451 41.0562 29.751 40.4156 29.9569C37.8761 30.7691 35.6911 31.4783 32.0076 31.3639L31.3327 31.3411L31.1611 31.9931C31.0238 32.4965 29.9943 36.5575 30.9895 39.1657C30.0972 39.8635 30.0972 40.6757 30.1087 40.7901C30.143 41.6823 29.9371 41.8997 29.8684 41.9798C29.4452 42.4259 28.0381 42.4831 26.8484 42.4831H26.837H26.4023L26.1506 42.8377C25.4185 43.8444 23.8398 44.0846 22.8217 43.8215C22.3756 42.4717 22.3642 41.4307 22.7989 40.8129C23.3022 40.0808 24.3775 40.0007 24.8236 40.0007H25.0753C26.1506 40.0007 27.02 39.1199 27.02 38.0446V30.7691C27.3518 30.2658 27.6149 29.6823 27.8437 29.0303C29.6168 28.7443 30.9781 27.2343 30.9781 25.4269C30.9781 24.7291 30.7722 24.0656 30.4061 23.4822C32.0534 22.6928 33.4604 21.0799 33.4604 18.9636C33.4604 16.8473 32.3966 15.8749 31.3899 15.2457C31.6759 14.4335 32.1449 13.0036 32.4652 11.5622L33.8837 6.47167C34.5243 4.4812 36.183 3.18854 38.1163 3.18854H63.1573C62.0934 4.67567 60.5949 5.38492 58.5014 5.38492H43.3441L42.5548 7.07796H56.1335C55.0696 8.771 53.5024 9.57176 51.2831 9.57176H41.4338L40.6444 11.2648H49.4299C48.3661 12.9006 46.8217 13.6671 44.6368 13.6671H39.2717L38.4824 15.3601H44.1106C44.1563 15.4288 44.3051 15.6804 44.3051 16.3782C44.3051 17.465 43.3899 18.3573 42.2688 18.3573C41.8799 18.3573 41.5481 18.2658 40.9762 18.037C40.7245 17.934 40.4728 17.8311 40.2326 17.7167L38.9285 18.8835C39.1687 18.9864 39.4204 19.0894 39.6606 19.1924C40.7817 19.6843 41.4223 19.9359 42.2688 19.9359C43.2984 19.9359 44.2364 19.5012 44.8999 18.8263C45.8608 18.8835 47.4166 19.0208 48.9266 19.1352C50.7226 19.2839 52.4271 19.4211 53.3079 19.4669C53.7426 19.4898 54.1544 19.5127 54.5548 19.5355C55.2984 19.5699 55.9847 19.6042 56.6711 19.6499C60.0915 25.1981 61.8418 25.9188 68.4652 26.7195C68.9342 27.5775 69.3689 28.4698 69.7807 29.3849V40.1838V40.241C69.8151 40.7329 69.8151 40.9045 69.7464 40.996C69.5176 41.2934 68.4995 41.7167 68.1449 41.8654L62.5624 43.9702C61.8074 42.9636 61.5443 41.9111 61.8303 41.1561ZM92.0877 25.587C91.653 25.2667 91.2069 24.9578 90.7264 24.6261C90.7607 24.2372 91.0124 24.3401 91.2412 24.4088C92.408 24.7634 93.5863 25.1066 94.7531 25.4841C95.1764 25.6213 95.5653 25.6328 96 25.4955C97.1439 25.118 98.3108 24.7863 99.4662 24.4431C99.6721 24.3859 99.9466 24.2372 100.027 24.6375C98.551 25.69 97.0753 26.7424 95.5882 27.7834C95.4852 27.8635 95.2221 27.8406 95.1077 27.7605C94.1011 27.0513 93.0944 26.3191 92.0877 25.587ZM106.238 2.39922H103.905V1.47262H117.392V8.23335H116.866C116.008 2.15899 114.189 2.41066 109.235 2.41066L109.224 10.3153H110.174C113.171 10.3725 113.296 6.6547 113.296 6.60894C113.296 6.60894 113.903 6.63182 113.914 6.60894L113.926 15.3487H113.296C112.942 12.3973 111.969 11.4021 110.254 11.3563H109.224V19.7986H110.997C114.818 19.7986 116.179 18.9864 116.877 13.6099H117.575V20.7138H103.676V19.7986H106.25V2.39922H106.238ZM103.71 11.505H101.663V20.7024C101.651 20.6909 99.2374 18.7691 99.2374 18.792C98.5167 19.9016 97.1554 20.8854 95.245 20.8854C89.1363 20.8854 87.4433 14.6623 87.4204 11.0017C87.409 7.00932 89.5024 1.27815 95.245 1.27815C98.2078 1.27815 99.2946 2.82248 99.2374 2.83392C99.2488 2.8568 101.525 1.18664 101.514 1.23239C101.525 1.22096 101.502 7.00932 101.502 8.22191H100.976C100.278 5.27053 98.5396 1.97596 95.245 1.97596C90.5548 1.97596 90.7264 9.25146 90.7264 11.0017C90.7264 12.9006 90.3832 20.016 95.245 20.016C95.9428 20.016 98.2765 19.3525 98.7226 17.7624V11.505H96.103V10.6471H103.71V11.505ZM170.711 19.7758C170.448 19.7758 168.732 19.8215 168.629 18.6318C168.561 17.7624 169.762 14.6509 169.762 14.6509H176.145C176.145 14.6394 178.135 19.7758 178.147 19.7758H175.916V20.7024H193.316V13.5985H192.618C191.92 18.975 190.559 19.7758 186.738 19.7758H186.509V2.38778H188.934V1.44974H180.949V2.38778H183.375V19.7758H181.441L174.337 0.934968H173.296C173.319 0.923529 167.394 18.0255 167.382 18.0827C167.394 18.037 166.936 19.547 165.964 19.7414C165.06 19.7872 165.129 19.3182 165.129 19.1466V15.852C165.129 14.9826 165.06 13.0265 164.168 12.1228C163.161 11.1047 161.445 11.036 161.48 10.9903C161.48 10.9903 165.849 10.0865 165.849 5.94545C165.849 3.03983 163.825 1.58702 160.45 1.46118H150.852V2.39922H153.312V19.7872H150.852V20.7138H158.723V19.7872H156.263V11.425H159.535C165.209 11.894 158.562 20.7138 165.998 20.7024H170.688V19.7758H170.711ZM172.965 5.44212L175.916 13.7586H170.185L172.965 5.44212ZM159.42 10.4412H156.297V2.38778H160.29C162.635 2.7424 162.726 5.45356 162.726 6.31152C162.726 8.3935 161.857 10.4412 159.42 10.4412ZM119.474 2.38778H118.639V1.46118H123.649L132.847 14.9826V3.88635C132.755 2.43354 131.108 2.38778 130.41 2.38778H129.895V1.46118H149.56V8.22191H149.033C148.164 2.14755 146.345 2.38778 141.392 2.38778V10.3039H142.341C145.338 10.3611 145.464 6.64326 145.464 6.5975C145.464 6.5975 146.071 6.62038 146.082 6.5975L146.093 15.3373H145.464C145.121 12.3859 144.137 11.3906 142.421 11.3449H141.392V19.7872H143.165C146.986 19.7872 148.347 18.975 149.045 13.5985H149.743V20.7024H135.844V19.7872H138.418V2.38778H136.164C135.466 2.38778 133.819 2.44498 133.727 3.88635V20.7024H133.384C133.316 20.7138 126.44 10.7958 122.803 5.59083L122.78 18.1056C122.78 19.4898 124.873 20.016 125.731 20.016V20.7024H118.959V20.016H118.97C119.84 20.016 121.91 19.4898 121.91 18.1056V3.88635C121.842 2.43354 120.458 2.38778 119.474 2.38778ZM202.067 20.7024H194.219V19.7643H196.69L196.679 2.38778H194.219V1.44974H202.067V2.38778H199.607V19.7643H202.067V20.7024ZM224.259 25.6328C223.825 25.3239 223.401 25.015 222.932 24.6833C222.967 24.3058 223.218 24.4088 223.436 24.4774C224.58 24.8206 225.735 25.1638 226.879 25.5298C227.302 25.6671 227.68 25.6785 228.103 25.5298C229.224 25.1638 230.368 24.832 231.5 24.5003C231.706 24.4431 231.97 24.2944 232.05 24.6947C230.608 25.7243 229.167 26.7653 227.703 27.772C227.6 27.8406 227.337 27.8292 227.234 27.7491C226.238 27.0627 225.255 26.342 224.259 25.6328ZM238.067 25.6328C237.632 25.3239 237.209 25.015 236.74 24.6833C236.774 24.3058 237.026 24.4088 237.243 24.4774C238.387 24.8206 239.542 25.1638 240.686 25.5298C241.11 25.6671 241.487 25.6785 241.91 25.5298C243.031 25.1638 244.175 24.832 245.308 24.5003C245.514 24.4431 245.777 24.2944 245.857 24.6947C244.416 25.7243 242.974 26.7653 241.51 27.772C241.407 27.8406 241.144 27.8292 241.041 27.7491C240.034 27.0627 239.051 26.342 238.067 25.6328ZM100.702 42.1285H101.502C101.342 43.3182 101.01 44.3821 100.519 45.3201C100.301 45.7205 100.038 46.1094 99.7407 46.4869C99.4433 46.8644 99.0772 47.1962 98.654 47.505C98.2307 47.8025 97.7388 48.0541 97.1897 48.2372C96.6292 48.4202 96 48.5117 95.2793 48.5117C94.2955 48.5117 93.4261 48.3744 92.6826 48.0884C91.939 47.8025 91.2984 47.4364 90.7493 46.9788C90.2002 46.5212 89.7426 45.995 89.3651 45.4116C88.9876 44.8282 88.6787 44.2333 88.4156 43.6271C87.8322 42.1971 87.5005 40.5842 87.4318 38.7653C87.4318 37.1752 87.6149 35.8253 87.9809 34.7157C88.347 33.6061 88.8046 32.6909 89.3651 31.9702C89.9257 31.2496 90.5319 30.689 91.1954 30.3001C91.8589 29.9111 92.4767 29.6137 93.0486 29.4192C93.6206 29.2248 94.1239 29.1104 94.5358 29.0761C94.9476 29.0417 95.1878 29.0189 95.2679 29.0189H95.4623C95.6225 29.0189 95.8742 29.0303 96.1945 29.0646C96.5148 29.0875 96.858 29.1561 97.2355 29.2591C97.613 29.362 97.979 29.5108 98.3451 29.6938C98.7112 29.8883 99.0086 30.1514 99.2259 30.506L101.399 28.8816V35.7796H100.85C100.782 34.6471 100.53 33.629 100.107 32.7367C99.9237 32.3477 99.6949 31.9817 99.4318 31.6156C99.1687 31.2495 98.837 30.9292 98.4595 30.6433C98.0705 30.3573 97.6244 30.1285 97.0982 29.9569C96.572 29.7853 95.9771 29.6938 95.3022 29.6938H95.2793C95.2107 29.6938 95.0391 29.7167 94.7874 29.751C94.5358 29.7853 94.2383 29.8997 93.8951 30.0827C93.552 30.2658 93.1973 30.5403 92.8198 30.9178C92.4423 31.2953 92.0992 31.8215 91.7788 32.4965C91.4585 33.1714 91.1954 34.0179 91.001 35.036C90.7951 36.0541 90.7035 37.301 90.7035 38.7882C90.7035 40.2181 90.795 41.4307 90.9895 42.4374C91.184 43.444 91.4242 44.2791 91.7331 44.9312C92.0305 45.5946 92.3737 46.1094 92.7398 46.4869C93.1058 46.8644 93.4604 47.139 93.7922 47.322C94.1354 47.505 94.4328 47.6194 94.6959 47.6652C94.959 47.7109 95.142 47.7338 95.2336 47.7338H95.3136C96.1716 47.6766 96.9724 47.4478 97.7045 47.0475C98.0134 46.8873 98.3336 46.6585 98.654 46.384C98.9743 46.1094 99.2717 45.7777 99.5462 45.3773C99.8208 44.9883 100.061 44.5193 100.278 43.9931C100.427 43.444 100.599 42.8263 100.702 42.1285ZM115.481 41.4993H116.031V48.3058H102.189V47.3678H104.58V30.0141H102.189V29.0761H115.481V35.8825H115.092C115.092 34.4183 114.932 33.2858 114.612 32.485C114.292 31.6843 113.937 31.1123 113.56 30.7462C113.102 30.3115 112.587 30.0598 112.027 30.0026H107.554V38.0789H109.007C109.613 37.9874 110.082 37.7472 110.425 37.3468C110.768 36.9578 111.02 36.5231 111.203 36.0656C111.409 35.5393 111.546 34.9559 111.615 34.3382H112.027V42.8263H111.615C111.581 42.1628 111.455 41.568 111.26 41.0417C111.1 40.5842 110.848 40.1495 110.517 39.7376C110.185 39.3258 109.716 39.0741 109.121 38.9826H107.554V47.3563H112.416C112.988 47.2991 113.491 47.0589 113.949 46.6128C114.337 46.2467 114.681 45.6633 115.001 44.874C115.321 44.0961 115.481 42.9636 115.481 41.4993ZM129.266 44.588C128.991 45.3087 128.648 45.9149 128.236 46.3954C127.825 46.8759 127.367 47.2648 126.864 47.5394C126.36 47.8139 125.88 48.0198 125.411 48.1571C124.942 48.2944 124.53 48.3744 124.175 48.4087C123.821 48.4316 123.569 48.4545 123.42 48.4545H123.306C122.814 48.4316 122.322 48.3744 121.819 48.26C121.396 48.1685 120.927 48.0084 120.423 47.7796C119.908 47.5508 119.439 47.2305 118.993 46.8301L117.094 48.2028V41.8311H117.621C117.678 42.9292 117.918 43.913 118.33 44.7939C118.513 45.1599 118.742 45.526 119.016 45.8806C119.291 46.2353 119.622 46.5556 120.023 46.8301C120.412 47.1047 120.881 47.3334 121.418 47.505C121.956 47.6766 122.585 47.7681 123.295 47.7681H123.375C123.489 47.7681 123.672 47.7567 123.935 47.7453C124.198 47.7224 124.507 47.6766 124.85 47.5965C125.194 47.5165 125.56 47.3906 125.937 47.2305C126.315 47.0703 126.658 46.8415 126.967 46.5556C127.276 46.2696 127.539 45.9035 127.733 45.4574C127.939 45.0112 128.031 44.4736 128.031 43.8558V43.7986C128.031 43.6842 128.008 43.4783 127.973 43.1695C127.939 42.8606 127.825 42.506 127.63 42.1285C127.436 41.7395 127.15 41.3735 126.784 41.0189C126.406 40.6642 125.868 40.3897 125.182 40.2067L121.144 39.2686C120.469 39.0856 119.863 38.7882 119.337 38.3878C118.879 38.0446 118.456 37.5641 118.078 36.9693C117.689 36.3744 117.506 35.5965 117.506 34.6471C117.506 33.6976 117.678 32.8625 118.032 32.1304C118.376 31.4097 118.822 30.8034 119.359 30.323C119.897 29.8425 120.503 29.4764 121.155 29.2248C121.819 28.9731 122.448 28.8587 123.054 28.8587C123.489 28.8587 123.924 28.9045 124.347 28.996C124.713 29.0875 125.102 29.2133 125.502 29.362C125.903 29.5222 126.257 29.751 126.578 30.0598L128.202 28.8473V34.5098H127.676C127.676 33.8921 127.607 33.343 127.481 32.8625C127.356 32.3821 127.184 31.9817 126.955 31.6385C126.738 31.2953 126.486 31.0093 126.212 30.7691C125.937 30.5289 125.651 30.3344 125.365 30.1628C124.69 29.7967 123.924 29.5908 123.054 29.5336C122.071 29.5336 121.293 29.7052 120.744 30.0598C120.194 30.403 119.794 30.792 119.531 31.2152C119.222 31.7071 119.039 32.2677 118.982 32.8854C118.982 33.4002 119.119 33.8234 119.394 34.1666C119.668 34.5098 119.966 34.7843 120.275 35.0017C120.641 35.2534 121.064 35.4593 121.533 35.608L125.182 36.546C126.246 36.8206 127.081 37.2095 127.676 37.7243C128.282 38.2391 128.728 38.7653 129.026 39.3144C129.323 39.8635 129.495 40.3668 129.563 40.8358C129.632 41.3048 129.655 41.6251 129.655 41.8082V41.9455C129.678 42.9864 129.541 43.8673 129.266 44.588ZM181.704 29.7967C181.133 29.465 180.561 29.2705 179.989 29.1904C179.417 29.1218 179.005 29.0761 178.753 29.0761H169.167V30.037H171.695V47.3678H169.167V48.3058H177.049V47.3678H174.658V39.486H178.536C178.604 39.486 178.787 39.4745 179.085 39.4402C179.382 39.4173 179.725 39.3487 180.114 39.2457C180.503 39.1428 180.927 38.9826 181.361 38.7538C181.796 38.5251 182.208 38.2047 182.585 37.8044C182.963 37.404 183.272 36.8892 183.5 36.2715C183.741 35.6537 183.855 34.8987 183.855 34.0179C183.855 32.8511 183.638 31.9359 183.214 31.2724C182.78 30.6204 182.276 30.1285 181.704 29.7967ZM180.755 34.1666C180.755 34.2924 180.755 34.4869 180.744 34.7615C180.732 35.0246 180.698 35.322 180.652 35.6537C180.595 35.9855 180.526 36.3172 180.435 36.6719C180.343 37.015 180.217 37.3353 180.046 37.6213C179.886 37.9073 179.668 38.1361 179.417 38.3191C179.165 38.5022 178.856 38.5937 178.513 38.5937H174.669V30.0484H178.513C178.936 30.0827 179.314 30.2543 179.634 30.5403C179.931 30.792 180.183 31.1924 180.412 31.7186C180.641 32.2448 180.755 33.0227 180.755 34.0293V34.1666ZM200.328 34.6128C199.962 33.526 199.504 32.6223 198.955 31.913C198.406 31.2038 197.811 30.6547 197.159 30.2658C196.507 29.8768 195.901 29.5908 195.317 29.3964C194.745 29.2019 194.242 29.0875 193.819 29.0532C193.396 29.0189 193.155 28.996 193.075 28.996H193.018C192.949 28.996 192.698 29.0189 192.263 29.0532C191.828 29.0875 191.325 29.2019 190.742 29.3964C190.158 29.5908 189.529 29.8768 188.877 30.2658C188.214 30.6547 187.607 31.2038 187.035 31.913C186.463 32.6223 186.006 33.526 185.64 34.6128C185.274 35.6995 185.091 37.0379 185.091 38.6051C185.159 40.4583 185.491 42.1056 186.074 43.5813C186.326 44.199 186.646 44.8168 187.024 45.4116C187.401 46.0065 187.87 46.5327 188.419 47.0017C188.98 47.4707 189.632 47.8482 190.387 48.1228C191.142 48.4087 192.011 48.546 192.995 48.546C193.979 48.546 194.848 48.4087 195.603 48.1228C196.358 47.8368 196.999 47.4593 197.548 47.0017C198.097 46.5327 198.566 46.0065 198.944 45.4116C199.333 44.8168 199.642 44.2105 199.882 43.5813C200.465 42.117 200.797 40.4583 200.866 38.6051C200.877 37.0379 200.694 35.7109 200.328 34.6128ZM197.285 42.3001C197.091 43.3067 196.85 44.1418 196.541 44.8168C196.244 45.4802 195.912 46.0065 195.558 46.384C195.203 46.7615 194.848 47.036 194.517 47.219C194.173 47.4021 193.876 47.5165 193.624 47.5622C193.373 47.608 193.19 47.6309 193.075 47.6309H192.915C192.824 47.6309 192.641 47.608 192.378 47.5622C192.114 47.5165 191.806 47.4021 191.474 47.219C191.131 47.036 190.787 46.7615 190.421 46.384C190.055 46.0065 189.724 45.4917 189.415 44.8168C189.117 44.1533 188.866 43.3067 188.671 42.3001C188.477 41.2934 188.385 40.0694 188.385 38.6166C188.385 37.1752 188.477 35.9512 188.671 34.9445C188.866 33.9493 189.106 33.1142 189.415 32.4507C189.712 31.7872 190.055 31.261 190.421 30.8835C190.787 30.506 191.131 30.2314 191.462 30.0484C191.794 29.8654 192.092 29.751 192.355 29.7052C192.618 29.6595 192.812 29.6366 192.915 29.6366H193.075C193.19 29.6366 193.373 29.6595 193.636 29.7052C193.899 29.751 194.196 29.8654 194.528 30.0484C194.86 30.2314 195.203 30.506 195.558 30.8835C195.912 31.261 196.244 31.7758 196.541 32.4507C196.839 33.1142 197.091 33.9607 197.285 34.9674C197.48 35.974 197.571 37.1866 197.571 38.6166C197.582 40.0579 197.48 41.2934 197.285 42.3001ZM212.042 29.0875H219.924V30.0255H217.51V47.3792H219.924V48.3172H212.042V47.3792H214.593V30.0141H212.042V29.0875ZM233.685 40.8244C233.754 41.2934 233.777 41.6137 233.777 41.7967V41.934C233.777 42.975 233.64 43.8558 233.365 44.588C233.091 45.3087 232.747 45.9149 232.336 46.3954C231.924 46.8759 231.466 47.2648 230.963 47.5394C230.459 47.8139 229.979 48.0198 229.51 48.1571C229.041 48.2944 228.629 48.3744 228.275 48.4087C227.92 48.4316 227.668 48.4545 227.52 48.4545H227.405C226.913 48.4316 226.421 48.3744 225.918 48.26C225.495 48.1685 225.026 48.0084 224.522 47.7796C224.008 47.5508 223.539 47.2305 223.092 46.8301L221.194 48.2028V41.8311H221.72C221.777 42.9292 222.017 43.913 222.429 44.7939C222.612 45.1599 222.841 45.526 223.115 45.8806C223.39 46.2353 223.722 46.5556 224.122 46.8301C224.511 47.1047 224.98 47.3334 225.518 47.505C226.055 47.6766 226.684 47.7681 227.394 47.7681H227.474C227.588 47.7681 227.771 47.7567 228.034 47.7453C228.297 47.7224 228.606 47.6766 228.949 47.5965C229.293 47.5165 229.659 47.3906 230.036 47.2305C230.414 47.0703 230.757 46.8415 231.066 46.5556C231.375 46.2696 231.638 45.9035 231.832 45.4574C232.038 45.0112 232.13 44.4736 232.13 43.8558V43.7986C232.13 43.6842 232.107 43.4783 232.072 43.1695C232.038 42.8606 231.924 42.506 231.729 42.1285C231.535 41.7395 231.249 41.3735 230.883 41.0189C230.505 40.6642 229.968 40.3897 229.281 40.2067L225.243 39.2686C224.568 39.0856 223.962 38.7882 223.436 38.3878C222.978 38.0446 222.555 37.5641 222.177 36.9693C221.788 36.3744 221.605 35.5965 221.605 34.6471C221.605 33.6976 221.777 32.8625 222.132 32.1304C222.475 31.4097 222.921 30.8034 223.459 30.323C223.996 29.8425 224.602 29.4764 225.255 29.2248C225.918 28.9731 226.547 28.8587 227.153 28.8587C227.588 28.8587 228.023 28.9045 228.446 28.996C228.812 29.0875 229.201 29.2133 229.602 29.362C230.002 29.5222 230.357 29.751 230.677 30.0598L232.301 28.8473V34.5098H231.775C231.775 33.8921 231.706 33.343 231.581 32.8625C231.455 32.3821 231.283 31.9817 231.054 31.6385C230.837 31.2953 230.585 31.0093 230.311 30.7691C230.036 30.5289 229.75 30.3344 229.464 30.1628C228.789 29.7967 228.023 29.5908 227.153 29.5336C226.17 29.5336 225.392 29.7052 224.843 30.0598C224.294 30.403 223.893 30.792 223.63 31.2152C223.321 31.7071 223.138 32.2677 223.081 32.8854C223.081 33.4002 223.218 33.8234 223.493 34.1666C223.767 34.5098 224.065 34.7843 224.374 35.0017C224.74 35.2534 225.163 35.4593 225.632 35.608L229.281 36.546C230.345 36.8206 231.18 37.2095 231.775 37.7243C232.381 38.2391 232.827 38.7653 233.125 39.3144C233.445 39.852 233.628 40.3554 233.685 40.8244ZM233.891 29.0875H248.694V35.8482H248.145C248.145 34.3611 247.985 33.2171 247.676 32.4164C247.367 31.6156 247.024 31.0208 246.658 30.6547C246.223 30.22 245.72 29.9683 245.171 29.9111H243.054V47.3792H245.445V48.3172H237.541V47.3792H239.954V29.9111H237.403C236.831 29.9683 236.328 30.2086 235.87 30.6547C235.481 31.0208 235.127 31.6042 234.795 32.4164C234.463 33.2171 234.303 34.3611 234.303 35.8482H233.891V29.0875ZM263.394 31.913C262.845 31.2038 262.25 30.6547 261.598 30.2658C260.946 29.8768 260.339 29.5908 259.756 29.3964C259.184 29.2019 258.681 29.0875 258.257 29.0532C257.834 29.0189 257.594 28.996 257.514 28.996H257.457C257.388 28.996 257.136 29.0189 256.702 29.0532C256.267 29.0875 255.764 29.2019 255.18 29.3964C254.597 29.5908 253.968 29.8768 253.316 30.2658C252.652 30.6547 252.046 31.2038 251.474 31.913C250.902 32.6223 250.444 33.526 250.078 34.6128C249.712 35.6995 249.529 37.0379 249.529 38.6051C249.598 40.4583 249.929 42.1056 250.513 43.5813C250.765 44.199 251.085 44.8168 251.462 45.4116C251.84 46.0065 252.309 46.5327 252.858 47.0017C253.418 47.4707 254.071 47.8482 254.826 48.1228C255.581 48.4087 256.45 48.546 257.434 48.546C258.418 48.546 259.287 48.4087 260.042 48.1228C260.797 47.8368 261.438 47.4593 261.987 47.0017C262.536 46.5327 263.005 46.0065 263.382 45.4116C263.771 44.8168 264.08 44.2105 264.32 43.5813C264.904 42.117 265.235 40.4583 265.304 38.6051C265.304 37.0265 265.121 35.6995 264.755 34.6128C264.4 33.526 263.943 32.6223 263.394 31.913ZM261.735 42.3001C261.541 43.3067 261.3 44.1418 260.991 44.8168C260.694 45.4802 260.362 46.0065 260.008 46.384C259.653 46.7615 259.298 47.036 258.967 47.219C258.623 47.4021 258.326 47.5165 258.074 47.5622C257.823 47.608 257.64 47.6309 257.525 47.6309H257.365C257.274 47.6309 257.091 47.608 256.827 47.5622C256.564 47.5165 256.255 47.4021 255.924 47.219C255.581 47.036 255.237 46.7615 254.871 46.384C254.505 46.0065 254.174 45.4917 253.865 44.8168C253.567 44.1533 253.316 43.3067 253.121 42.3001C252.927 41.2934 252.835 40.0694 252.835 38.6166C252.835 37.1752 252.927 35.9512 253.121 34.9445C253.316 33.9493 253.556 33.1142 253.865 32.4507C254.162 31.7872 254.505 31.261 254.871 30.8835C255.237 30.506 255.581 30.2314 255.912 30.0484C256.244 29.8654 256.541 29.751 256.805 29.7052C257.068 29.6595 257.262 29.6366 257.365 29.6366H257.525C257.64 29.6366 257.823 29.6595 258.086 29.7052C258.349 29.751 258.646 29.8654 258.978 30.0484C259.31 30.2314 259.653 30.506 260.008 30.8835C260.362 31.261 260.694 31.7758 260.991 32.4507C261.289 33.1142 261.541 33.9607 261.735 34.9674C261.929 35.974 262.021 37.1866 262.021 38.6166C262.021 40.0579 261.929 41.2934 261.735 42.3001ZM294.864 30.0141C294.692 30.037 294.498 30.0827 294.292 30.1514C294.086 30.22 293.88 30.3344 293.685 30.4831C293.491 30.6318 293.342 30.8263 293.228 31.0894V48.3172H292.324L282.326 33.1256V46.3039C282.383 46.5441 282.475 46.7386 282.612 46.8759C282.749 47.0246 282.909 47.1275 283.081 47.2076C283.253 47.2762 283.436 47.3334 283.619 47.3563C283.802 47.3792 283.962 47.4021 284.088 47.4021C284.145 47.4021 284.191 47.4021 284.236 47.3906C284.282 47.3792 284.328 47.3792 284.362 47.3792H284.477V48.3172H279.398V47.3792H279.478C279.512 47.3792 279.558 47.3792 279.603 47.3906C279.649 47.4021 279.695 47.4021 279.729 47.4021C279.981 47.4021 280.301 47.3334 280.679 47.2076C281.056 47.0818 281.331 46.7729 281.514 46.3039V31.7986C281.514 29.9226 278.608 29.8997 278.608 29.8997H277.682L272.294 48.3058H271.607L265.842 29.8997H263.428V29.0761H271.333V29.8997H268.782L273.117 43.4669L277.018 29.8997H274.604V29.0761H278.608H283.241L292.484 42.7005V31.0894C292.427 30.8377 292.301 30.6318 292.118 30.4831C291.924 30.3344 291.718 30.2314 291.489 30.1514C291.26 30.0827 291.043 30.037 290.826 30.0141C290.62 29.9912 290.46 29.9912 290.345 29.9912H290.208V29.0875H295.401V29.9912H295.264C295.173 29.9912 295.047 30.0027 294.864 30.0141ZM310.124 47.3792L303.317 29.0875H302.219L296.374 46.3039C296.259 46.5441 296.122 46.7386 295.95 46.8759C295.779 47.0246 295.596 47.1275 295.413 47.2076C295.23 47.2762 295.058 47.322 294.887 47.3449C294.726 47.3678 294.589 47.3678 294.498 47.3678H294.36V48.3058H299.691V47.3678H299.439C299.314 47.3678 299.142 47.3563 298.948 47.322C298.742 47.2991 298.559 47.2419 298.376 47.1618C298.193 47.0818 298.032 46.9445 297.907 46.7615C297.781 46.5784 297.712 46.3382 297.712 46.0522C297.712 45.812 297.746 45.5832 297.826 45.3659L298.902 42.5632H305.056L306.921 47.3678H304.805V48.3058H312V47.3678H310.124V47.3792ZM299.039 41.6366L301.704 33.6175L304.667 41.6366H299.039ZM134.723 47.3792H137.113V48.3172H129.232V47.3792H131.76V29.9912H129.232V29.0875H137.113V29.9912H134.723V47.3792ZM152.374 27.4974C153.346 26.6966 154.33 25.9645 155.222 25.1294C155.908 24.4888 156.675 24.3058 157.567 24.3744C158.059 24.4202 158.562 24.363 159.054 24.3859C159.214 24.3973 159.375 24.5231 159.535 24.5918C159.42 24.7291 159.34 24.9235 159.192 24.9922C158.162 25.4612 157.133 25.9188 156.092 26.3649C155.028 26.8225 153.952 27.2686 152.9 27.7491C152.602 27.8978 152.465 27.8292 152.374 27.4974ZM153.049 29.0875H151.95L146.105 46.3039C146.105 46.3039 145.876 47.0589 144.801 47.2991L137.251 37.221L144.446 30.0141H146.528V29.0761H141.174V30.0141H143.508L135.123 38.4221L141.929 47.3792H139.401V48.3172H144.103H147.283H149.434V47.3792H149.182C149.056 47.3792 148.885 47.3678 148.69 47.3334C148.484 47.3106 148.301 47.2534 148.118 47.1733C147.935 47.0932 147.775 46.9559 147.649 46.7729C147.523 46.5899 147.455 46.3496 147.455 46.0637C147.455 45.8234 147.489 45.5946 147.569 45.3773L148.644 42.5746H154.799L156.663 47.3792H154.547V48.3172H161.743V47.3792H159.878L153.049 29.0875ZM148.759 41.6366L151.424 33.6175L154.387 41.6366H148.759ZM202.559 29.0875H210.967V30.0255H208.301V41.3277V42.0255C208.301 42.1857 208.29 42.4717 208.255 42.8606C208.233 43.2496 208.164 43.6957 208.061 44.1761C207.958 44.6566 207.809 45.1599 207.592 45.6747C207.386 46.1895 207.089 46.6585 206.711 47.0932C206.334 47.5279 205.865 47.8711 205.316 48.1456C204.755 48.4202 204.08 48.5575 203.268 48.5575C202.742 48.5575 202.25 48.4545 201.815 48.26C201.449 48.0999 201.106 47.8482 200.797 47.505C200.488 47.1618 200.328 46.6814 200.328 46.0408C200.351 45.709 200.419 45.423 200.545 45.1943C200.66 44.9883 200.82 44.8053 201.037 44.6337C201.255 44.4621 201.575 44.3706 201.998 44.3706C202.215 44.4049 202.433 44.485 202.627 44.6223C202.787 44.7367 202.936 44.8968 203.062 45.1256C203.188 45.3544 203.256 45.6633 203.256 46.0408C203.234 46.2009 203.199 46.3611 203.142 46.5098C203.108 46.6356 203.051 46.7615 202.959 46.8759C202.879 46.9903 202.776 47.0932 202.673 47.1618V47.4364C202.673 47.5508 202.707 47.6423 202.787 47.7224C202.856 47.8025 202.948 47.8597 203.039 47.9054C203.153 47.9626 203.268 47.9969 203.394 48.0198C203.851 48.0198 204.206 47.8825 204.446 47.5965C204.698 47.3106 204.869 46.9903 204.984 46.6242C205.11 46.2009 205.19 45.7319 205.201 45.2286V41.3506V30.0484H202.536V29.0875H202.559ZM15.9581 32.4393L10.5586 31.0322V29.2591L15.9581 30.6547V32.4393ZM3.38608 30.6776L8.78551 29.2705V31.0436L3.38608 32.4393V30.6776ZM3.38608 34.2353L8.78551 32.8396V34.6128L3.38608 36.0084V34.2353ZM15.9581 35.9969L10.5586 34.6013V32.8282L15.9581 34.2238V35.9969ZM15.9581 39.5546L10.5701 38.159V36.3859L15.9695 37.7929V39.5546H15.9581ZM3.38608 37.7815L8.78551 36.3744V38.159L3.38608 39.5546V37.7815Z" fill="#C21B17"/>
</svg>